<svg width="40" height="40" viewBox="0 0 40 40" xmlns="http://www.w3.org/2000/svg">
    <defs>
        <clipPath id="dcljeb49va">
            <path d="M1440 0v1406H0V0h1440z"/>
        </clipPath>
        <clipPath id="ukpehp5d2b">
            <path d="M20 0c11.046 0 20 8.954 20 20s-8.954 20-20 20S0 31.046 0 20 8.954 0 20 0z"/>
        </clipPath>
        <clipPath id="48wn10eopc">
            <path d="M.885 3.015c.04.007.113.017.115.027.002.13-.245.137-.372.278C.193 3.783.1 4.347.263 4.722c.01.022.016.048.02.073.003.016.008.035.003.05-.005.017.042.143.03.154-.012.008-.031.017-.044.015-.053-.006-.093-.035-.11-.086-.04-.138-.087-.265-.133-.394a.61.61 0 0 1-.022-.284c.04-.355.225-.752.566-1.088a.588.588 0 0 1 .163-.113c.024-.015.099-.025.15-.034zm1.757 0c.04-.004.145.02.217.036.05.028.143.074.141.088-.058.147-.366.185-.603.28-.799.309-1.186.9-1.142 1.405a.353.353 0 0 1-.006.093c-.004.02-.007.042-.02.058a.116.116 0 0 1-.056.037.121.121 0 0 1-.068-.004C1.038 4.975.997 4.922 1 4.856c.009-.176.005-.342.003-.511a.635.635 0 0 1 .103-.332c.219-.38.651-.738 1.265-.95a.91.91 0 0 1 .271-.048zm19.726-1a.947.947 0 0 1 .276.053c.619.221 1.049.582 1.26.961a.601.601 0 0 1 .095.329c-.007.166-.016.33-.012.504 0 .065-.043.116-.112.147a.13.13 0 0 1-.069.002.12.12 0 0 1-.056-.037c-.013-.016-.016-.038-.019-.058a.323.323 0 0 1-.003-.092c.06-.495-.317-1.086-1.122-1.405-.238-.1-.552-.143-.606-.29-.002-.013.094-.056.147-.083.074-.014.181-.035.221-.03zm1.751 0c.052.01.128.022.153.037a.62.62 0 0 1 .165.117c.344.343.524.741.558 1.094a.58.58 0 0 1-.029.281c-.051.127-.102.252-.148.387-.017.051-.06.079-.113.084-.014 0-.034-.008-.046-.017-.013-.012.039-.135.035-.151-.005-.016 0-.034.003-.05a.316.316 0 0 1 .023-.072c.177-.368.094-.93-.343-1.4-.128-.144-.382-.158-.377-.286.003-.01.077-.018.12-.024zM8.097 6.198 8 6.254c.279-.156.554-.314.827-.472.035.001.072 0 .11-.001L9 5.776l-.195.213-.107.036-.584.194.143.174c.04.059.077.117.115.176.072.103.145.206.22.307.245-.174.522-.317.78-.47.167-.098.335-.193.505-.285a.52.52 0 0 0 .113-.06l.227-.118a.107.107 0 0 0 .054-.076c.302-.176.657-.32.973-.448.125-.05.251-.096.38-.139.063-.01.128-.018.194-.026l.001.019c.184-.1.393-.162.591-.204.095-.02.234-.047.372-.05.016-.353.046-.705.076-1.057a3.875 3.875 0 0 0-.64.028.165.165 0 0 1-.157-.084l-.005-.102c.007-.077.012-.155.015-.233.004-.157.015-.343-.002-.518.003-.057.007-.115.012-.172.007-.07.07-.098.128-.089a.135.135 0 0 1 .061-.053c.164.07.42.052.601.016.112.01.277.053.387.015l.024-.01c.044.004.089.01.132.016l.034-.006.111.013h-.092l.164.03a.489.489 0 0 1 .309 0l.033.001h.015c.015.001.03-.005.043-.014a.27.27 0 0 0 .117-.061 1.02 1.02 0 0 0-.002.084c-.033-.036-.087-.021-.123.01l-.05-.008c.023.01.045.02.067.033.064-.019.137-.027.19.016.024.021.037.05.04.08.006.008.01.019.01.032v.071h.015l.01-.003-.004.012c.02 0 .021.002.018.007l-.009.01c-.026-.003-.014.008-.014.028l-.007.022-.01.022c.004.02.006.04.008.06a.105.105 0 0 0-.013.032c-.026.122-.04.246-.046.37a1.17 1.17 0 0 1-.036.08c-.007.067-.022.14-.045.218-.025.083-.085.136-.177.127a6.254 6.254 0 0 1-.42-.058c.002.226 0 .452-.002.678.007.056.011.113.012.167l.025-.005a.154.154 0 0 0-.007.019h-.018a.596.596 0 0 1-.027.182c.084.002.168.009.255.008.17-.002.334-.022.506-.01.154.01.305.021.46.024.166.003.323-.003.489.023.151.023.302.045.454.061.365.039.725.218 1.065.346.25.094.484.187.716.308a.104.104 0 0 1 .004-.074l.023-.051c-.009-.22.542-1.445.67-1.635a1.31 1.31 0 0 0-.2-.123c-.157-.076-.312-.147-.467-.225-.302-.152-.658-.21-.986-.273a7.562 7.562 0 0 1-.508-.11c-.163-.044-.302-.12-.458-.178-.19-.07-.316-.253-.49-.354a.09.09 0 0 0 .01-.027 1.67 1.67 0 0 0 .02-.271c.04-.063.081-.121.112-.165.1-.144.222-.27.348-.39.107-.1.224-.227.35-.303.148-.09.35-.18.51-.24.354-.13.766-.136 1.14-.175.14-.014.282.008.421.047l-.01-.014c.134.016.276.018.428.001.154-.017.223.094.35.048.067.02.142-.004.207.024.05.021.163.01.194.056.007.01.118-.038.127-.033 0 .028.001.054.006.081a1.64 1.64 0 0 1 .07-.13c.077-.145.157-.288.214-.444.012-.032.053-.064.088-.064.05 0 .1-.005.15-.014a.31.31 0 0 0 .01-.066l.002-.138a1.427 1.427 0 0 0-.012-.374l-.003-.012a.322.322 0 0 1 .063-.03l.001-.011c.002-.036.035-.072.067-.084a.602.602 0 0 1 .638.157c.065.077.09.18.055.276l.009.044a.572.572 0 0 0-.004.026.431.431 0 0 0-.061.022.385.385 0 0 1-.137.091c-.1.096-.152.235-.102.373.023.065.054.124.07.191a.359.359 0 0 1-.003.174c.01.048-.009.085-.027.12-.03.11-.08.223-.084.333l-.045-.02c-.004.049-.009.097-.016.146a.13.13 0 0 1-.025.062c.03.011.059.023.088.037.134.065.259.15.387.226.103.061.214.107.32.165.125.068.237.156.364.223.13.068.264.131.386.211.113.075.186.18.274.277.206.123.355.345.457.607l.038.086c.055.138.097.289.129.434a.77.77 0 0 1 .005.264c.023.274.01.533-.028.723a.81.81 0 0 1-.042.14c-.019.12-.062.235-.115.344a.138.138 0 0 1-.21.05l-.093-.073a.279.279 0 0 1-.106-.063c-.243-.047-.514-.201-.719-.316-.53-.299-1.102-.504-1.645-.77l-.072-.024c-.103-.035-.213-.047-.314-.086-.065-.025-.12-.054-.188-.07l.003-.01a.073.073 0 0 0-.035-.078c-.124.224-.631 1.48-.737 1.714a.105.105 0 0 1-.025.036c.052.033.104.067.16.094.1.048.203.084.301.14.112.064.223.126.332.19a1.017 1.017 0 0 0 .126.074c.106.065.212.13.316.201.22.15.428.312.637.476.181.143.348.295.539.428.255.178.506.359.71.594.091.106.202.19.28.308.051.079.092.165.13.251.272.298.468.651.666 1.002.06.091.118.184.171.28.08.144.154.295.222.449.06.082.12.166.176.25.201.304.273.665.391 1.006l.015.04c.038.297.105.59.17.881.028.126.046.351.136.484.042.203.073.409.097.617.033.29.076.58.087.87-.042.147-.085.294-.13.439l.133-.28-.001.082-.005.079c.004.048.006.097.007.145.012.02.019.045.013.073l-.019.093a3.71 3.71 0 0 1-.013.146c.018.185.02.37.01.555a.507.507 0 0 0-.02.26l-.014.118c-.006.048-.032.078-.065.09a3.52 3.52 0 0 1-.091.365c-.173.572-.424 1.114-.563 1.698-.072.303-.21.608-.331.896-.129.305-.325.567-.522.83-.094.126-.161.257-.232.395-.07.136-.185.249-.275.372-.106.145-.21.286-.34.41-.07.065-.17.19-.272.264a.122.122 0 0 1-.018.037c-.054.071-.094.152-.144.226l.12.135c.043.073.09.145.14.217l.006.012.135.187c.077.15.15.3.24.441.045.07.093.111.152.168.095.093.154.2.207.32.05.113.105.213.174.314.064.092.11.164.144.247-.043.023-.084.047-.124.07-.108.06-.216.125-.317.198l-.01-.01-.072-.08a.706.706 0 0 0-.206-.169 1.29 1.29 0 0 1-.373-.284 5.998 5.998 0 0 0-.575-.562c-.097-.08-.225-.112-.323-.188-.085-.064-.161-.131-.25-.191a.07.07 0 0 0-.022-.015l-.01-.003c-.024-.008-.05.003-.07.022a.116.116 0 0 0-.021.006c-.293.096-.516.272-.76.45-.14.101-.265.225-.417.31-.159.09-.344.125-.513.193-.3.12-.602.222-.89.365-.147.074-.293.175-.45.221-.18.052-.368.046-.55.075-.327.052-.653.18-.984.192-.139.005-.261-.007-.392.046-.211.085-.407.092-.63.117-.343.04-.68-.07-1.022-.037l-.05.004a9.62 9.62 0 0 0-.29-.058 5.086 5.086 0 0 1-.785-.114l-.018-.006a6.798 6.798 0 0 1-1.546-.57 1.514 1.514 0 0 1-.362-.137.435.435 0 0 1-.055-.013.082.082 0 0 0-.023.028l-.011.005a.182.182 0 0 0-.079.075.107.107 0 0 0-.02.01c-.098.052-.142.182-.18.303a1.053 1.053 0 0 0-.053.057c-.053.062-.167.203-.174.315a2.83 2.83 0 0 1-.25.33c-.147.166-.304.308-.426.493-.062.095-.139.163-.191.264-.033.063-.063.138-.108.194-.062.076-.055.074-.125.047-.03-.011-.058-.035-.088-.047-.053-.02-.13-.017-.175-.045-.123-.073-.02-.238.021-.335.096-.223.145-.428.194-.663.053-.25.151-.503.221-.75.03-.107.074-.216.114-.326a.1.1 0 0 1-.001-.066c.037-.111.091-.214.148-.315-.06-.046-.126-.078-.18-.13-.064-.06-.114-.11-.189-.158-.18-.117-.407-.24-.558-.392-.06-.06-.099-.112-.176-.153-.079-.043-.17-.063-.248-.106a1.342 1.342 0 0 1-.191-.132c-.086-.084-.17-.168-.257-.25l-.028-.033c-.261-.3-.457-.632-.749-.91-.15-.142-.25-.306-.38-.464-.064-.076-.113-.157-.169-.238-.04-.06-.086-.11-.124-.165a.066.066 0 0 0-.002-.035 2.88 2.88 0 0 0-.042-.112 7.115 7.115 0 0 1-.363-.635c-.208-.415-.352-.862-.516-1.295-.17-.452-.339-.904-.495-1.36l-.043-.135.028.169a.184.184 0 0 0-.036.01v-.206a5.847 5.847 0 0 1-.256-1.311c-.01-.145-.029-.358-.005-.557l-.006-.06v.018c-.006.05-.008.101-.01.153-.008.002-.016.006-.023.006.032-.1.025-.21.018-.32l.009-.03a4.272 4.272 0 0 1-.01-.372c.003-.192.011-.424.067-.63 0-.099.004-.236.031-.354-.002-.305.18-.66.25-.91.104-.369.22-.73.374-1.075.097-.357.23-.704.478-.968a1.05 1.05 0 0 1 .133-.24c.027-.06.056-.12.088-.176.072-.13.182-.249.267-.372.077-.112.157-.223.235-.335.164-.238.377-.459.6-.643.226-.187.409-.41.605-.625.118-.13.246-.252.37-.377l.038-.008c.06-.01.132-.06.156-.121.031.014.068-.002.094-.028a4.652 4.652 0 0 1-.461-.477l-.06-.07-.73-.864-.06-.071c-.185.175-.379.342-.564.503-.22.192-.443.379-.693.53-.245.15-.504.272-.748.42-.235.141-.441.363-.707.447-.11.035-.196.018-.246-.035l-.024.007c.003-.02-.004-.04-.027-.054-.033-.02-.064-.124-.082-.159A1.595 1.595 0 0 1 3.4 7.33c-.067-.196-.134-.364-.166-.572-.032-.215-.012-.421-.007-.637.003-.115-.024-.231-.01-.346.012-.1.032-.21.052-.309.082-.401.365-.71.634-1.003.145-.158.314-.288.483-.419l.18-.138a.922.922 0 0 0 .422-.275.062.062 0 0 0 .024-.015l.01-.005c.044.041.132-.023.142-.084a.542.542 0 0 0 .03-.022 18.51 18.51 0 0 0-.06-.102l-.01.008a1.802 1.802 0 0 0-.16-.263c-.065-.09-.134-.207-.226-.273l-.027-.042c.019-.13.04-.26-.058-.366-.04-.043-.085-.06-.138-.082-.123-.048-.176-.084-.204-.217-.048-.234.126-.336.348-.366.051-.007.126-.026.19-.022.036.03.076.059.123.086.014.042.013.089.04.131-.012.018-.018.04-.012.06a.511.511 0 0 0 .298.333c.159.062.223.206.312.336.08.054.154.115.222.186.063-.055.128-.108.195-.159.05-.038.104-.073.157-.106a.862.862 0 0 0 .053-.061c.014-.043.136.019.155-.02.055-.003.122-.077.179-.083.26-.03.371-.133.559-.241.148-.047.3-.084.444-.096l.026-.002c.006.031.028.053.075.047.106-.016.213-.037.32-.058.796.018 1.571.29 2.14.853.003 0 .008.007.013.017l.032.072.012.018c.113.03.138.064.043.142-.52.433-.99.924-1.58 1.267-.324.187-.61.413-.913.627-.076.054-.225.183-.35.225.02.026.392.47.641.77l.063.075z"/>
        </clipPath>
    </defs>
    <g clip-path="url(#dcljeb49va)" transform="translate(-1057 -364)">
        <g clip-path="url(#ukpehp5d2b)" transform="translate(1057 364)">
            <path fill="#C3D600" d="M0 0h40v40H0V0z"/>
        </g>
        <g clip-path="url(#48wn10eopc)" transform="translate(1063 370.985)">
            <path fill="#FFF" d="M0 0h25v26.015H0V0z"/>
        </g>
    </g>
</svg>
