<?xml version="1.0" encoding="UTF-8"?>
<svg width="40px" height="40px" viewBox="0 0 40 40" version="1.1" xmlns="http://www.w3.org/2000/svg" xmlns:xlink="http://www.w3.org/1999/xlink">
    <title>Icon / BrandSpecific / Level</title>
    <g id="Icon-/-BrandSpecific-/-Level" stroke="none" stroke-width="1" fill="none" fill-rule="evenodd">
        <g id="Group-8">
            <path d="M20,40 C31.046,40 40,31.0453053 40,19.9995208 C40,8.95373631 31.046,0 20,0 C8.954,0 0,8.95373631 0,19.9995208 C0,31.0453053 8.954,40 20,40" id="Fill-1" fill="#C4D600"></path>
            <polygon id="Fill-3" fill="#FFFFFF" points="5.9376 25.9157143 20.0006 17.5341048 34.0616 25.914756 20.0006 34.2954072"></polygon>
            <polygon id="Fill-4" fill="#FFFFFF" points="5.9376 20.3399219 20.0006 11.9583124 34.0616 20.3389636 20.0006 28.7196147"></polygon>
            <polygon id="Fill-5" fill="#FFFFFF" points="5.9376 14.4280409 20.0006 6.0464314 34.0616 14.4270826 20.0006 22.8077338"></polygon>
            <path d="M27.7919,19.8298953 L19.9999,24.4739931 L12.2079,19.828937 L10.7379,18.9530176 L5.8579,16.0454251 L8.7869,16.0454251 L19.9999,22.7279044 L31.2119,16.0444668 L34.1419,16.0454251 L29.2609,18.9539759 L27.7919,19.8298953 Z M8.7869,27.6182946 L19.9999,34.3093989 L31.2119,27.6182946 L8.7869,27.6182946 Z M27.8429,25.6163301 L19.9999,30.2901363 L12.1569,25.6163301 L10.6869,24.7394523 L5.8579,21.8625267 L7.1839,20.9636072 L8.7869,21.8625267 L19.9999,28.5545892 L31.2119,21.8625267 L33.8009,20.3454802 L34.7629,21.4514004 L34.1419,21.8625267 L29.3129,24.7394523 L27.8429,25.6163301 Z M34.1419,27.6182946 L19.9999,36.0459043 L5.8579,27.6182946 L34.1419,27.6182946 Z" id="Fill-6" fill="#C5D600"></path>
            <path d="M19.9998,22.727521 L8.7868,16.0460001 L5.8578,16.0460001 L10.7378,18.9535926 L12.2078,19.8285536 L19.9998,24.4736098 L27.7918,19.829512 L29.2608,18.9535926 L34.1428,16.0460001 L31.2118,16.0450418 L19.9998,22.727521 Z M31.2118,21.8621433 L21.5698,27.6179113 L19.9998,28.5542059 L18.4298,27.6179113 L8.7868,21.8621433 L7.1838,20.9632238 L5.8578,21.8621433 L10.6868,24.7400273 L12.1568,25.6159467 L15.5158,27.6179113 L5.8578,27.6179113 L19.9998,36.045521 L34.1428,27.6179113 L31.2118,27.6179113 L19.9998,34.3099739 L8.7868,27.6179113 L15.5158,27.6179113 L19.9998,30.2907113 L24.4848,27.6179113 L27.8438,25.6159467 L29.3128,24.7400273 L34.1428,21.8621433 L34.7628,21.4519754 L33.8008,20.3450969 L31.2118,21.8621433 Z M24.4848,27.6179113 L31.2118,27.6179113 L24.4848,27.6179113 Z M18.4298,27.6179113 L21.5698,27.6179113 L18.4298,27.6179113 Z" id="Fill-7" fill="#C5D600"></path>
        </g>
    </g>
</svg>