<svg width="40" height="40" viewBox="0 0 40 40" xmlns="http://www.w3.org/2000/svg">
    <defs>
        <clipPath id="7ny8hff9fa">
            <path d="M1440 0v1406H0V0h1440z"/>
        </clipPath>
        <clipPath id="v0ylyywztb">
            <path d="M20 0c11.046 0 20 8.954 20 20s-8.954 20-20 20S0 31.046 0 20 8.954 0 20 0z"/>
        </clipPath>
        <clipPath id="iyk3llmcyc">
            <path d="M32.374 1.024c.033.01.067.026.091.05.073.07.152.137.189.24.01.028.034.061.06.07.071.026.09.082.1.15.016.129.052.253.09.377.049.154.08.313.08.478-.001.151.002.302.008.454.015.386.017.77-.062 1.152-.011.056-.02.113-.028.17l-.042.344-.129.932c-.024.17-.052.342-.08.512-.014.093-.033.185-.044.277-.021.18-.03.36-.057.538-.048.306-.096.613-.161.915a74.359 74.359 0 0 1-.363 1.568c-.12.503-.246 1.006-.372 1.508-.056.224-.114.447-.177.668-.084.301-.172.601-.261.901a5.489 5.489 0 0 1-.112.338c-.042.114-.103.21-.228.248-.08.025-.093.082-.035.147.062.07.065.146.058.232-.008.092-.108.207-.203.197a.148.148 0 0 0-.041.003c-.078.013-.137.049-.154.137-.019.103-.04.205-.062.307-.072.32-.126.643-.17.968-.007.046-.01.093-.02.139l-.205.961a5.478 5.478 0 0 0-.064.34.468.468 0 0 1-.053.173.324.324 0 0 0-.033.102c-.055.297-.106.596-.166.892-.073.36-.128.723-.148 1.09-.01.217-.015.434-.025.65a16.797 16.797 0 0 1-.053.765l-.046.485c-.014.157-.012.318-.042.473-.061.321-.13.642-.226.955a2.207 2.207 0 0 1-.286.61 1.373 1.373 0 0 1-.415.373.53.53 0 0 1-.277.081c-.098.003-.195.009-.292.004a1.155 1.155 0 0 1-.707-.283.524.524 0 0 1-.188-.446c.004-.06-.005-.123-.007-.184-.006-.108-.013-.215-.016-.324a1.08 1.08 0 0 1 .131-.517.6.6 0 0 0 .046-.12l.163-.648c.011-.046.024-.091.039-.135.065-.187.127-.374.197-.559.068-.182.139-.363.21-.544-.02.025.578-3.01 1.794-9.104.105-.366.202-.733.287-1.105l.254-1.116c.052-.228.107-.455.155-.684.039-.18.07-.36.105-.54.063-.26.122-.52.178-.78.144-.684.288-1.367.43-2.052.053-.257.103-.515.142-.775.044-.293.088-.585.16-.871.05-.203.104-.404.214-.584a.349.349 0 0 0 .03-.057c.06-.15.153-.274.265-.384.163-.162.353-.225.574-.162zm-29.112.023c.019.024.029.052.038.078.07.22.135.441.208.661.056.17.106.34.185.506.197.408.309.828.426 1.247.108.38.221.76.325 1.14.041.152.058.306.096.458.044.175.094.35.15.524.112.359.132.474.24.834.05.162.083.327.106.492.025.188.036.378.045.567.008.199-.044.391-.154.58-.08.136-.155.273-.283.395-.102.097-.165.199-.261.3-.058.06-.048.361-.091.426a.523.523 0 0 0-.083.18 1.291 1.291 0 0 0-.034.459c.018.113 0 .229.017.342.068.472.166.94.296 1.407.017.062.028.126.037.189l2.015 5.01c.027.046.055.093.08.14.227.425.447.851.672 1.277.122.23.251.46.374.691.066.127.128.255.19.383.082.165.148.291.262.45.164.227.352.724.392.983.054.357.262 1.146.02 1.463-.146.193-.258.578-.565.644-.206.044-.422.067-.634.1-.208.032-.249.007-.46.001-.324-.008-.43-.143-.693-.258-.45-.197-.54-1.136-.553-1.17-.079-.223-.315-1.369-.302-1.617.012-.22-.307-1.425-.264-1.668.013-.07-.003-.255-.026-.463l-.038-.318c-.026-.208-.05-.393-.051-.463-.009-.375-.079-.4-.13-.774-.037-.275-.082-.55-.126-.825-.057-.357-.113-.714-.175-1.07a28.059 28.059 0 0 0-.153-.8c-.04-.2-.084-.398-.136-.596-.065-.25-.144-.497-.211-.746-.126-.462-.24-.926-.375-1.387-.076-.255-.185-.506-.283-.759a1.37 1.37 0 0 0-.097-.203c-.183-.31-.53-.534-.937-.72-.216-.098-.41-.206-.557-.35-.08-.078-.169-.154-.252-.231a1.307 1.307 0 0 1-.367-.588c-.062-.205-.109-.412-.168-.618-.068-.234-.063-.471-.098-.707a4.27 4.27 0 0 0-.048-.258l-.149-.68C.657 5.589.63 5.472.605 5.355a35.554 35.554 0 0 1-.097-.505.476.476 0 0 1-.01-.083c-.003-.399-.052-.43-.119-.825-.068-.404-.141-.808-.214-1.212l-.122-.646c-.02-.113-.03-.228-.04-.342-.004-.034-.012-.072.037-.098.175.013.192.018.223.116a.747.747 0 0 1 .042.234c-.004.166.011.331.045.496.033.164.062.329.098.493.015.066.05.13.066.196.029.121.046.243.075.364.093.378.168.39.263.768.055.218.106.436.166.654.022.081.066.16.098.24.036.087.076.174.102.263.077.268.142.537.222.804.062.206.389.124.38.053-.007-.051-.002-.102-.001-.153l.011-.134-.006-.066c-.094-.346-.13-.697-.197-1.045-.053-.278-.124-.555-.177-.833-.051-.266-.08-.534-.138-.8-.05-.225-.125-.45-.19-.674-.008-.031-.018-.062-.02-.093l-.048-.485c-.004-.043-.007-.087-.021-.129-.058-.175-.051-.353-.07-.53-.005-.037-.004-.073.066-.084.065-.01.136.014.159.057.01.022.01.047.017.07.076.292.138.586.231.875.064.197.153.39.178.591.028.206.1.404.164.605.071.22.103.445.157.667.038.16.079.32.13.477.058.178.129.353.193.53l.27.749c.005.011.012.022.016.034.217.606.521.19.5.014-.014-.122-.026-.244-.045-.366a3.436 3.436 0 0 0-.058-.305c-.084-.35-.178-.7-.258-1.052-.058-.258-.099-.517-.15-.775-.024-.122-.056-.242-.078-.364-.022-.125-.035-.25-.054-.377-.03-.196-.056-.393-.098-.588-.034-.156-.101-.309-.134-.464a1.359 1.359 0 0 1-.007-.532c.01-.056.05-.076.113-.073.077.005.117.03.12.085.005.056 0 .11.001.166.006.186.052.369.098.552.06.237.101.477.16.714.05.199.113.396.171.593.03.097.067.193.09.29.056.247.147.488.242.73.011.03.025.06.031.091.071.393.235.774.329 1.164.023.097.07.192.101.288.074.227.32.393.374.335l-.005-.027.011.017.051-.093c.104-.263-.099-.522-.11-.859a4.038 4.038 0 0 0-.12-.86c-.031-.124-.038-.251-.06-.376a6.553 6.553 0 0 0-.056-.305c-.02-.09-.047-.179-.062-.269-.08-.447-.168-.893-.334-1.33-.053-.142-.09-.286-.135-.43-.032-.096-.07-.19-.1-.288a1.204 1.204 0 0 1-.036-.175c-.005-.036-.002-.073.07-.082.06-.008.128.01.156.045zm14.86-.022a8.47 8.47 0 0 1 1.728.278c.402.11.805.218 1.206.336.446.132.873.32 1.277.577.746.476 1.437 1.035 2.02 1.742.365.443.745.878 1 1.421.03.067.076.125.117.185.318.461.568.965.797 1.487.203.464.391.933.541 1.42.297 1.454.25 3.2-.141 5.24-.587 3.058-1.997 4.197-2.084 4.276l-.325.309-.169.144c-.424.33-.842.67-1.305.935-.4.23-.796.47-1.217.652-.724.314-1.457.59-2.226.744-.488.098-.978.176-1.47.215-.348.027-.697.007-1.046.008-.123 0-.246.007-.37-.002a10.012 10.012 0 0 1-3.245-.78c-.774-.326-1.499-.745-2.186-1.25a9.5 9.5 0 0 1-1.318-1.175c-.024-.027-.05-.05-.073-.078-.279-.344-.487-.545-.753-.9-.015-.02-1.203-1.309-1.641-3.135-.293-1.218-.316-2.852-.072-4.902.112-.54.257-1.07.446-1.583.085-.231.187-.455.292-.676.194-.411.39-.822.597-1.225.237-.46.55-.858.87-1.246.167-.203.352-.386.529-.577.407-.441.867-.8 1.368-1.092.25-.146.497-.296.752-.427.369-.19.761-.297 1.153-.412.382-.112.767-.191 1.152-.277.431-.097.868-.15 1.305-.186a17.67 17.67 0 0 1 2.49-.046z"/>
        </clipPath>
    </defs>
    <g clip-path="url(#7ny8hff9fa)" transform="translate(-1173 -364)">
        <g clip-path="url(#v0ylyywztb)" transform="translate(1173 364)">
            <path fill="#C3D600" d="M0 0h40v40H0V0z"/>
        </g>
        <g clip-path="url(#iyk3llmcyc)" transform="translate(1177 373)">
            <path fill="#FFF" d="M0 0h33v23H0V0z"/>
        </g>
    </g>
</svg>
